{"glyphs":{"0":{"ha":1510,"x_min":36,"x_max":1475,"o":"m 1083 972 q 1310 907 1215 972 q 1440 730 1404 842 q 1440 486 1475 618 q 1309 242 1404 354 q 1085 65 1214 131 q 824 0 956 0 l 428 0 q 201 65 296 0 q 72 242 107 131 q 72 486 38 354 q 203 730 107 618 q 428 907 299 842 q 689 972 557 972 l 1083 972 m 1017 719 l 621 719 q 617 719 619 719 q 614 719 615 719 l 1140 389 q 1188 486 1174 436 q 1163 651 1213 583 q 1017 719 1113 719 m 496 253 l 825 253 l 351 550 q 325 486 333 518 q 349 321 299 389 q 496 253 399 253 z "},"1":{"ha":960,"x_min":-61,"x_max":839,"o":"m 549 253 l 839 253 l 771 0 l -61 0 l 7 253 l 297 253 l 422 719 l 221 719 l 289 972 l 742 972 l 549 253 z "},"2":{"ha":1151,"x_min":-53,"x_max":1163,"o":"m 940 972 q 1106 895 1049 972 q 1133 710 1163 818 q 1033 547 1108 618 q 864 453 958 475 q 342 253 517 375 l 1003 253 l 936 0 l -53 0 l -18 126 q 44 263 0 197 q 146 378 89 328 q 278 475 203 429 q 426 554 353 521 q 582 617 499 588 q 733 665 665 646 q 869 699 800 683 q 881 710 878 700 q 872 719 883 719 l 149 719 l 217 972 l 940 972 z "},"3":{"ha":1188,"x_min":-53,"x_max":1193,"o":"m 940 972 q 1128 885 1064 972 q 1158 674 1192 797 q 1043 486 1131 568 q 1058 299 1086 404 q 914 88 1025 175 q 679 0 803 0 l -53 0 l 15 253 l 733 253 q 765 260 749 253 q 794 283 782 268 q 810 314 806 297 q 803 356 817 339 q 765 374 790 374 l 208 374 l 300 599 l 825 599 q 873 616 850 599 q 903 659 896 633 q 897 702 910 685 q 858 719 883 719 l 140 719 l 208 972 l 940 972 z "},"4":{"ha":1129,"x_min":81,"x_max":1163,"o":"m 910 935 l 1161 935 l 911 0 l 658 0 l 717 217 l 413 217 q 222 272 301 217 q 112 421 142 326 q 111 626 82 515 l 204 972 l 457 972 l 364 626 q 380 515 346 561 q 481 468 414 468 l 785 468 l 910 935 z "},"5":{"ha":1179,"x_min":-47,"x_max":1118,"o":"m 844 599 q 1033 511 969 599 q 1064 299 1097 424 q 919 88 1031 175 q 685 0 808 0 l -47 0 l 21 253 l 739 253 q 786 270 764 253 q 815 313 808 288 q 809 356 822 339 q 771 374 796 374 l 353 374 q 165 461 229 374 q 133 674 100 549 l 214 972 l 1117 972 l 1049 719 l 399 719 q 382 658 392 693 q 381 635 379 646 q 388 616 382 624 q 404 603 394 608 q 426 599 414 599 l 844 599 z "},"6":{"ha":1168,"x_min":36,"x_max":1107,"o":"m 833 599 q 974 558 915 599 q 1053 449 1032 518 q 1053 299 1075 381 q 972 149 1031 218 q 835 40 914 81 q 674 0 756 0 l 428 0 q 201 65 296 0 q 72 242 107 131 q 73 486 38 354 q 203 730 108 618 q 427 907 297 842 q 689 972 557 972 l 1106 972 l 1039 719 l 621 719 q 438 651 524 719 q 325 486 351 583 q 349 321 299 389 q 496 253 399 253 l 728 253 q 760 260 744 253 q 788 283 776 268 q 804 313 800 297 q 798 356 811 339 q 760 374 785 374 l 378 374 l 469 599 l 833 599 z "},"7":{"ha":1074,"x_min":121,"x_max":1081,"o":"m 833 972 q 976 931 917 972 q 1057 819 1035 890 q 1057 667 1079 749 q 910 449 1024 539 q 669 360 796 360 l 560 360 q 517 344 538 360 q 492 306 497 328 l 408 0 l 157 0 l 239 306 q 321 460 261 389 q 463 572 381 531 q 626 613 544 613 l 736 613 q 778 628 758 613 q 805 667 799 644 q 799 704 811 689 q 765 719 788 719 l 122 719 l 189 972 l 833 972 z "},"8":{"ha":1189,"x_min":-4,"x_max":1194,"o":"m 942 972 q 1130 885 1065 972 q 1161 674 1194 797 q 1044 486 1133 568 q 1061 299 1089 404 q 981 149 1039 218 q 842 40 922 81 q 682 0 763 0 l 249 0 q 61 88 125 0 q 31 299 -3 175 q 146 486 58 404 q 131 674 103 568 q 275 885 164 797 q 510 972 386 972 l 942 972 m 379 658 q 379 628 375 643 q 395 606 383 614 q 424 599 407 599 l 828 599 q 876 616 853 599 q 905 659 899 633 q 899 702 911 685 q 860 719 886 719 l 456 719 q 408 702 431 719 q 379 658 386 685 m 783 270 q 794 279 783 270 q 813 313 806 288 q 806 356 819 339 q 768 374 793 374 l 364 374 q 315 356 338 374 q 286 314 293 339 q 285 290 283 300 q 293 271 288 279 q 308 258 299 263 q 331 253 318 253 l 735 253 q 783 270 760 253 z "},"9":{"ha":1167,"x_min":63,"x_max":1132,"o":"m 740 972 q 967 907 872 972 q 1097 730 1061 842 q 1097 486 1132 618 q 966 242 1061 354 q 742 65 871 131 q 481 0 613 0 l 63 0 l 131 253 l 547 253 q 731 321 644 253 q 844 486 818 389 q 819 651 869 583 q 674 719 769 719 l 442 719 q 394 702 417 719 q 365 659 371 685 q 371 616 358 633 q 408 599 383 599 l 792 599 l 700 374 l 335 374 q 147 461 211 374 q 116 673 83 549 q 260 885 149 797 q 494 972 371 972 l 740 972 z "},"\u0000":{"ha":0,"x_min":0,"x_max":0,"o":""},"\n":{"ha":0,"x_min":0,"x_max":0,"o":""},"\r":{"ha":0,"x_min":0,"x_max":0,"o":""}," ":{"ha":571,"x_min":0,"x_max":0,"o":""},"!":{"ha":424,"x_min":-37,"x_max":463,"o":"m 231 253 q 258 240 249 253 q 264 207 268 226 l 221 46 q 199 13 215 26 q 163 0 182 0 l 1 0 q -28 13 -18 0 q -32 46 -37 26 l 11 207 q 33 240 17 226 q 68 253 50 253 l 231 253 m 424 972 q 451 959 442 972 q 457 926 461 946 l 313 388 q 290 356 307 369 q 254 342 274 342 l 93 342 q 64 356 74 342 q 60 388 54 369 l 204 926 q 226 959 210 946 q 261 972 243 972 l 424 972 z "},"\"":{"ha":454,"x_min":115,"x_max":515,"o":"m 303 972 q 332 959 322 972 q 336 926 342 946 l 276 703 q 254 670 271 683 q 219 657 238 657 l 154 657 q 126 670 136 657 q 121 703 117 683 l 181 926 q 203 959 186 946 q 239 972 219 972 l 303 972 m 476 972 q 504 959 494 972 q 510 926 514 946 l 449 703 q 428 670 444 683 q 392 657 411 657 l 328 657 q 299 670 308 657 q 294 703 289 683 l 354 926 q 376 959 360 946 q 411 972 393 972 l 476 972 z "},"#":{"ha":1097,"x_min":-6,"x_max":1072,"o":"m 1019 481 l 899 481 l 871 375 l 990 375 l 939 179 l 818 179 l 765 -15 l 514 -15 l 565 179 l 368 179 l 317 -15 l 64 -15 l 115 179 l -4 179 l 47 375 l 168 375 l 197 481 l 76 481 l 129 678 l 249 678 l 324 957 l 576 957 l 501 678 l 699 678 l 774 957 l 1026 957 l 951 678 l 1072 678 l 1019 481 m 618 375 l 646 481 l 449 481 l 421 375 l 618 375 z "},"%":{"ha":1899,"x_min":89,"x_max":1803,"o":"m 830 880 q 858 841 830 880 q 857 694 886 803 q 731 509 828 586 q 525 432 633 432 l 311 432 q 147 509 203 432 q 119 694 90 586 q 246 880 149 803 q 451 957 343 957 l 665 957 q 830 880 774 957 m 629 821 l 415 821 q 414 821 415 821 q 413 821 413 821 l 696 642 q 721 694 714 668 q 708 784 735 747 q 629 821 681 821 m 256 694 q 269 605 242 642 q 347 568 296 568 l 525 568 l 269 729 q 256 694 260 710 m 1581 510 q 1745 433 1689 510 q 1772 247 1801 356 q 1646 62 1743 139 q 1440 -15 1549 -15 l 1226 -15 q 1062 62 1118 -15 q 1035 247 1006 139 q 1161 433 1064 356 q 1367 510 1258 510 l 1581 510 m 1544 374 l 1331 374 q 1329 374 1331 374 q 1328 374 1328 374 l 1611 194 q 1636 247 1629 221 q 1623 337 1650 300 q 1544 374 1596 374 m 1263 121 l 1440 121 l 1185 282 q 1171 247 1175 263 q 1184 158 1157 194 q 1263 121 1211 121 m 1253 957 l 1561 957 l 619 -15 l 311 -15 l 1253 957 z "},"&":{"ha":1138,"x_min":-8,"x_max":1104,"o":"m 850 658 l 1103 658 l 922 -15 l 671 -15 l 699 93 l 633 -15 l 244 -15 q 57 72 121 -15 q 25 283 -7 160 q 142 471 54 389 q 126 658 97 553 q 269 869 158 782 q 506 957 381 957 l 899 957 l 832 704 l 451 704 q 403 687 426 704 q 374 644 381 669 q 381 601 368 618 q 419 583 393 583 l 831 583 l 850 658 m 326 238 l 738 238 l 771 358 l 358 358 q 326 351 342 358 q 298 328 310 343 q 282 299 286 314 q 288 255 275 272 q 326 238 301 238 z "},"'":{"ha":297,"x_min":124,"x_max":349,"o":"m 311 972 q 333 966 324 972 q 345 949 342 960 q 344 926 349 939 l 285 703 q 263 670 279 683 q 228 657 246 657 l 163 657 q 135 670 144 657 q 129 703 125 683 l 189 926 q 211 959 194 946 q 247 972 228 972 l 311 972 z "},"*":{"ha":479,"x_min":121,"x_max":526,"o":"m 526 875 l 407 801 l 486 729 l 407 649 l 347 704 l 322 611 l 224 611 l 249 704 l 158 649 l 122 729 l 240 801 l 161 875 l 240 954 l 300 900 l 325 992 l 424 992 l 400 900 l 489 954 l 526 875 z "},"+":{"ha":761,"x_min":22,"x_max":711,"o":"m 710 532 l 657 335 l 439 335 l 379 117 l 183 117 l 242 335 l 24 335 l 75 532 l 294 532 l 354 751 l 550 751 l 492 532 l 710 532 z "},",":{"ha":376,"x_min":-65,"x_max":250,"o":"m 232 253 q 244 247 240 253 q 247 233 249 240 l 186 6 q 181 -4 185 0 l 69 -131 q 50 -140 61 -140 l -31 -140 q -44 -131 -42 -140 q -39 -111 -47 -121 l 32 -29 q 38 -10 40 -19 q 24 0 35 0 l -49 0 q -61 6 -57 0 q -62 19 -65 11 l -6 233 q 19 253 0 253 l 232 253 z "},"-":{"ha":756,"x_min":19,"x_max":708,"o":"m 72 532 l 707 532 l 654 335 l 21 335 l 72 532 z "},".":{"ha":376,"x_min":-61,"x_max":246,"o":"m 207 253 q 235 240 225 253 q 240 207 244 226 l 197 46 q 175 13 192 26 q 139 0 158 0 l -22 0 q -51 13 -42 0 q -56 46 -61 26 l -12 207 q 10 240 -7 226 q 44 253 26 253 l 207 253 z "},":":{"ha":408,"x_min":-26,"x_max":406,"o":"m 242 324 q 263 317 254 324 q 274 301 271 311 q 275 278 278 290 l 231 117 q 210 84 226 97 q 174 71 193 71 l 13 71 q -17 84 -7 71 q -21 117 -26 97 l 22 278 q 44 310 28 297 q 79 324 61 324 l 242 324 m 367 792 q 396 778 386 792 q 400 746 406 765 l 357 585 q 335 552 351 565 q 299 539 318 539 l 138 539 q 108 552 118 539 q 104 585 99 565 l 147 746 q 156 764 150 756 q 169 778 161 772 q 187 788 178 785 q 206 792 196 792 l 367 792 z "},";":{"ha":411,"x_min":-29,"x_max":406,"o":"m 368 792 q 390 785 381 792 q 401 769 399 779 q 401 746 404 758 l 358 585 q 336 552 353 565 q 300 539 319 539 l 139 539 q 110 552 119 539 q 106 585 100 565 l 149 746 q 157 764 151 756 q 171 778 163 772 q 188 788 179 785 q 207 792 197 792 l 368 792 m 268 324 q 281 318 276 324 q 283 304 285 313 l 222 76 q 217 67 221 71 l 106 -60 q 86 -69 97 -69 l 6 -69 q -8 -59 -6 -69 q -3 -39 -11 -49 l 68 42 q 74 61 76 51 q 60 71 71 71 l -12 71 q -25 76 -21 71 q -26 90 -29 82 l 31 304 q 56 324 36 324 l 268 324 z "},"<":{"ha":583,"x_min":19,"x_max":596,"o":"m 586 825 q 593 825 590 826 q 594 819 596 824 l 538 608 q 533 603 538 604 l 215 429 l 442 257 q 443 251 443 256 l 386 40 q 381 35 385 36 q 375 35 378 33 l 33 296 q 25 324 21 306 l 82 536 q 106 564 88 554 l 586 825 z "},"=":{"ha":783,"x_min":-12,"x_max":754,"o":"m 119 653 l 754 653 l 701 457 l 67 457 l 119 653 m -12 163 l 40 358 l 675 358 l 622 163 l -12 163 z "},">":{"ha":582,"x_min":-43,"x_max":533,"o":"m 519 564 q 528 536 532 554 l 471 324 q 447 296 465 306 l -33 35 q -40 35 -37 33 q -42 40 -43 36 l 15 253 q 19 257 15 256 l 338 431 l 111 603 q 110 608 110 604 l 167 819 q 172 825 168 824 q 178 825 175 826 l 519 564 z "},"?":{"ha":983,"x_min":113,"x_max":994,"o":"m 381 253 q 408 240 399 253 q 414 207 418 226 l 371 46 q 349 13 365 26 q 313 0 332 0 l 151 0 q 122 13 132 0 q 118 46 113 26 l 161 207 q 183 240 167 226 q 218 253 200 253 l 381 253 m 733 972 q 924 893 854 972 q 974 696 993 814 q 897 529 957 607 q 752 406 838 451 q 578 360 667 360 l 474 360 q 452 342 457 360 q 431 311 447 324 q 397 299 415 299 l 231 299 q 211 305 219 299 q 199 321 203 311 q 199 342 196 331 q 329 533 229 454 q 542 613 429 613 l 643 613 q 683 625 664 613 q 711 657 703 638 q 711 701 722 682 q 675 719 700 719 l 160 719 q 133 732 142 719 q 128 763 124 744 l 172 929 q 183 951 175 940 q 203 967 192 961 q 226 972 215 972 l 733 972 z "},"@":{"ha":1381,"x_min":8,"x_max":1360,"o":"m 1033 956 q 1222 901 1143 956 q 1329 754 1300 847 q 1329 551 1358 661 q 1135 266 1285 385 q 817 147 985 147 l 554 147 q 392 223 447 147 q 365 406 336 299 q 490 590 393 514 q 693 665 586 665 l 978 665 l 883 317 q 1056 392 976 325 q 1161 551 1136 460 q 1167 643 1175 600 q 1137 718 1160 686 q 1075 769 1114 750 q 989 788 1036 788 l 714 788 q 406 673 551 788 q 218 396 261 558 q 217 200 189 290 q 322 58 246 110 q 504 6 397 6 l 944 6 l 899 -162 l 458 -162 q 199 -87 307 -162 q 49 116 90 -12 q 49 396 8 244 q 199 676 90 547 q 458 881 308 806 q 758 956 607 956 l 1033 956 m 715 315 l 764 497 l 649 497 q 577 471 611 497 q 533 406 543 444 q 543 342 524 368 q 600 315 563 315 l 715 315 z "},"A":{"ha":1093,"x_min":-331,"x_max":992,"o":"m 981 121 q 953 33 992 75 q 865 -10 915 -10 l 208 -10 l 400 243 l 672 243 l 597 576 l -49 -278 l -331 -278 l 547 881 q 617 940 575 918 q 701 963 658 963 q 772 940 743 963 q 810 881 801 918 l 981 121 z "},"À":{"ha":1093,"x_min":-331,"x_max":992,"o":"m 981 121 q 953 33 992 75 q 865 -10 915 -10 l 208 -10 l 400 243 l 672 243 l 597 576 l -49 -278 l -331 -278 l 547 881 q 617 940 575 918 q 701 963 658 963 q 772 940 743 963 q 810 881 801 918 l 981 121 z "},"Á":{"ha":1093,"x_min":-331,"x_max":992,"o":"m 981 121 q 953 33 992 75 q 865 -10 915 -10 l 208 -10 l 400 243 l 672 243 l 597 576 l -49 -278 l -331 -278 l 547 881 q 617 940 575 918 q 701 963 658 963 q 772 940 743 963 q 810 881 801 918 l 981 121 z "},"Â":{"ha":1093,"x_min":-331,"x_max":992,"o":"m 981 121 q 953 33 992 75 q 865 -10 915 -10 l 208 -10 l 400 243 l 672 243 l 597 576 l -49 -278 l -331 -278 l 547 881 q 617 940 575 918 q 701 963 658 963 q 772 940 743 963 q 810 881 801 918 l 981 121 z "},"Ã":{"ha":1093,"x_min":-331,"x_max":992,"o":"m 981 121 q 953 33 992 75 q 865 -10 915 -10 l 208 -10 l 400 243 l 672 243 l 597 576 l -49 -278 l -331 -278 l 547 881 q 617 940 575 918 q 701 963 658 963 q 772 940 743 963 q 810 881 801 918 l 981 121 z "},"Ä":{"ha":1093,"x_min":-331,"x_max":992,"o":"m 981 121 q 953 33 992 75 q 865 -10 915 -10 l 208 -10 l 400 243 l 672 243 l 597 576 l -49 -278 l -331 -278 l 547 881 q 617 940 575 918 q 701 963 658 963 q 772 940 743 963 q 810 881 801 918 l 981 121 z "},"Å":{"ha":1093,"x_min":-331,"x_max":992,"o":"m 981 121 q 953 33 992 75 q 865 -10 915 -10 l 208 -10 l 400 243 l 672 243 l 597 576 l -49 -278 l -331 -278 l 547 881 q 617 940 575 918 q 701 963 658 963 q 772 940 743 963 q 810 881 801 918 l 981 121 z "},"B":{"ha":1204,"x_min":-44,"x_max":1207,"o":"m 951 972 q 1142 884 1078 972 q 1174 671 1207 796 q 1081 507 1150 581 q 1106 303 1138 419 q 960 88 1072 176 q 724 0 849 0 l -44 0 l 217 972 l 951 972 m 828 269 q 839 278 828 269 q 856 310 850 286 q 850 351 863 335 q 814 368 838 368 l 385 368 l 447 604 l 846 604 q 891 621 869 604 q 919 662 913 638 q 913 703 925 686 q 876 719 900 719 l 401 719 l 276 253 l 782 253 q 828 269 807 253 z "},"C":{"ha":1015,"x_min":4,"x_max":1092,"o":"m 589 719 q 406 651 493 719 q 293 486 318 583 q 293 369 276 422 q 355 284 310 315 q 464 253 400 253 l 899 253 l 831 0 l 396 0 q 169 65 264 0 q 40 242 75 131 q 40 486 6 354 q 171 730 75 618 q 396 907 267 842 q 657 972 525 972 l 1092 972 l 1024 719 l 589 719 z "},"Ç":{"ha":1015,"x_min":4,"x_max":1092,"o":"m 589 719 q 406 651 493 719 q 293 486 318 583 q 293 369 276 422 q 355 284 310 315 q 464 253 400 253 l 899 253 l 831 0 l 396 0 q 169 65 264 0 q 40 242 75 131 q 40 486 6 354 q 171 730 75 618 q 396 907 267 842 q 657 972 525 972 l 1092 972 l 1024 719 l 589 719 z "},"D":{"ha":1172,"x_min":-44,"x_max":1169,"o":"m 778 972 q 1004 907 910 972 q 1133 730 1099 842 q 1133 486 1168 618 q 1002 242 1097 354 q 778 65 907 131 q 517 0 649 0 l -44 0 l 217 972 l 778 972 m 767 321 q 811 355 767 321 q 881 486 854 389 q 857 651 907 583 q 710 719 807 719 l 401 719 l 276 253 l 585 253 q 767 321 681 253 z "},"E":{"ha":1181,"x_min":-44,"x_max":1247,"o":"m 1179 719 l 401 719 l 368 599 l 1067 599 l 1006 374 l 308 374 l 276 253 l 1054 253 l 986 0 l -44 0 l 217 972 l 1247 972 l 1179 719 z "},"È":{"ha":1181,"x_min":-44,"x_max":1247,"o":"m 1179 719 l 401 719 l 368 599 l 1067 599 l 1006 374 l 308 374 l 276 253 l 1054 253 l 986 0 l -44 0 l 217 972 l 1247 972 l 1179 719 z "},"É":{"ha":1181,"x_min":-44,"x_max":1247,"o":"m 1179 719 l 401 719 l 368 599 l 1067 599 l 1006 374 l 308 374 l 276 253 l 1054 253 l 986 0 l -44 0 l 217 972 l 1247 972 l 1179 719 z "},"Ê":{"ha":1181,"x_min":-44,"x_max":1247,"o":"m 1179 719 l 401 719 l 368 599 l 1067 599 l 1006 374 l 308 374 l 276 253 l 1054 253 l 986 0 l -44 0 l 217 972 l 1247 972 l 1179 719 z "},"Ë":{"ha":1181,"x_min":-44,"x_max":1247,"o":"m 1179 719 l 401 719 l 368 599 l 1067 599 l 1006 374 l 308 374 l 276 253 l 1054 253 l 986 0 l -44 0 l 217 972 l 1247 972 l 1179 719 z "},"F":{"ha":1143,"x_min":-44,"x_max":1247,"o":"m 1179 719 l 401 719 l 335 474 l 972 474 l 913 249 l 275 249 l 208 0 l -44 0 l 217 972 l 1247 972 l 1179 719 z "},"G":{"ha":1218,"x_min":4,"x_max":1174,"o":"m 921 525 l 1174 525 l 1032 0 l 396 0 q 169 65 264 0 q 40 242 75 131 q 40 486 6 354 q 129 675 67 585 q 274 830 192 765 q 458 933 357 894 q 657 972 558 972 l 1167 972 l 1099 719 l 589 719 q 513 708 551 719 q 439 674 474 696 q 375 624 404 653 q 324 560 346 596 q 293 486 303 524 q 317 321 267 389 q 464 253 367 253 l 847 253 l 921 525 z "},"H":{"ha":1219,"x_min":-44,"x_max":1264,"o":"m 1011 972 l 1264 972 l 1003 0 l 750 0 l 846 357 l 304 357 l 208 0 l -44 0 l 217 972 l 469 972 l 364 581 l 906 581 l 1011 972 z "},"I":{"ha":425,"x_min":-44,"x_max":469,"o":"m 217 972 l 469 972 l 208 0 l -44 0 l 217 972 z "},"Ì":{"ha":425,"x_min":-44,"x_max":469,"o":"m 217 972 l 469 972 l 208 0 l -44 0 l 217 972 z "},"Í":{"ha":425,"x_min":-44,"x_max":469,"o":"m 217 972 l 469 972 l 208 0 l -44 0 l 217 972 z "},"Î":{"ha":425,"x_min":-44,"x_max":469,"o":"m 217 972 l 469 972 l 208 0 l -44 0 l 217 972 z "},"Ï":{"ha":425,"x_min":-44,"x_max":469,"o":"m 217 972 l 469 972 l 208 0 l -44 0 l 217 972 z "},"J":{"ha":981,"x_min":-104,"x_max":1047,"o":"m 297 972 l 1047 972 l 917 486 q 787 242 882 354 q 562 65 692 131 q 300 0 432 0 l -104 0 l -36 253 l 368 253 q 552 321 465 253 q 664 486 639 389 l 726 719 l 231 719 l 297 972 z "},"K":{"ha":1174,"x_min":-47,"x_max":1304,"o":"m 928 21 q 947 -16 939 -6 q 963 -37 954 -26 q 1002 -49 972 -47 q 1060 -51 1032 -50 q 1163 -53 1089 -53 l 1206 -53 l 1144 -278 l 1103 -278 q 1053 -278 1081 -278 q 960 -276 994 -278 q 883 -269 925 -275 q 813 -252 840 -264 q 758 -220 786 -240 q 710 -169 731 -200 q 671 -94 689 -137 q 563 249 636 -10 q 549 295 554 282 q 530 321 543 308 q 497 337 517 333 q 438 340 476 340 l 299 340 l 206 -10 l -47 -10 l 214 963 l 467 963 l 367 592 l 551 592 l 971 963 l 1303 963 l 771 492 q 825 368 803 449 q 854 265 836 331 q 882 163 872 199 q 905 86 892 128 q 928 21 918 44 z "},"L":{"ha":894,"x_min":-44,"x_max":814,"o":"m 276 253 l 814 253 l 746 0 l -44 0 l 217 972 l 469 972 l 276 253 z "},"M":{"ha":1478,"x_min":-44,"x_max":1521,"o":"m 1317 972 l 1521 972 l 1260 0 l 1008 0 l 1138 485 l 961 311 q 872 242 919 271 q 772 197 824 213 q 668 182 719 182 q 533 216 592 182 q 446 311 475 250 l 347 517 l 208 0 l -44 0 l 217 972 l 444 972 l 460 939 l 688 463 q 736 435 701 435 q 800 463 771 435 l 1250 907 l 1317 972 z "},"N":{"ha":1422,"x_min":-56,"x_max":1481,"o":"m 510 719 q 417 694 458 719 q 368 638 376 669 l 197 0 l -56 0 l 115 638 q 288 874 153 776 q 578 972 424 972 q 728 940 661 972 q 832 850 794 908 l 1072 486 l 725 486 l 600 681 q 510 719 575 719 m 1228 972 l 1479 972 l 1308 335 q 1137 98 1272 196 q 847 0 1001 0 q 697 32 764 0 q 593 122 631 64 l 356 486 l 699 486 l 825 292 q 915 253 850 253 q 1007 278 965 253 q 1057 335 1049 304 l 1228 972 z "},"Ñ":{"ha":1422,"x_min":-56,"x_max":1481,"o":"m 510 719 q 417 694 458 719 q 368 638 376 669 l 197 0 l -56 0 l 115 638 q 288 874 153 776 q 578 972 424 972 q 728 940 661 972 q 832 850 794 908 l 1072 486 l 725 486 l 600 681 q 510 719 575 719 m 1228 972 l 1479 972 l 1308 335 q 1137 98 1272 196 q 847 0 1001 0 q 697 32 764 0 q 593 122 631 64 l 356 486 l 699 486 l 825 292 q 915 253 850 253 q 1007 278 965 253 q 1057 335 1049 304 l 1228 972 z "},"O":{"ha":1342,"x_min":4,"x_max":1339,"o":"m 946 972 q 1173 907 1078 972 q 1303 730 1268 842 q 1302 486 1338 618 q 1172 242 1267 354 q 947 65 1076 131 q 686 0 818 0 l 396 0 q 169 65 264 0 q 40 242 75 131 q 40 486 6 354 q 171 730 75 618 q 396 907 267 842 q 657 972 525 972 l 946 972 m 937 321 q 980 355 937 321 q 1050 486 1024 389 q 1026 651 1076 583 q 879 719 975 719 l 589 719 q 406 651 493 719 q 293 486 318 583 q 293 369 276 422 q 355 284 310 315 q 464 253 400 253 l 754 253 q 937 321 850 253 z "},"Ò":{"ha":1342,"x_min":4,"x_max":1339,"o":"m 946 972 q 1173 907 1078 972 q 1303 730 1268 842 q 1302 486 1338 618 q 1172 242 1267 354 q 947 65 1076 131 q 686 0 818 0 l 396 0 q 169 65 264 0 q 40 242 75 131 q 40 486 6 354 q 171 730 75 618 q 396 907 267 842 q 657 972 525 972 l 946 972 m 937 321 q 980 355 937 321 q 1050 486 1024 389 q 1026 651 1076 583 q 879 719 975 719 l 589 719 q 406 651 493 719 q 293 486 318 583 q 293 369 276 422 q 355 284 310 315 q 464 253 400 253 l 754 253 q 937 321 850 253 z "},"Ó":{"ha":1342,"x_min":4,"x_max":1339,"o":"m 946 972 q 1173 907 1078 972 q 1303 730 1268 842 q 1302 486 1338 618 q 1172 242 1267 354 q 947 65 1076 131 q 686 0 818 0 l 396 0 q 169 65 264 0 q 40 242 75 131 q 40 486 6 354 q 171 730 75 618 q 396 907 267 842 q 657 972 525 972 l 946 972 m 937 321 q 980 355 937 321 q 1050 486 1024 389 q 1026 651 1076 583 q 879 719 975 719 l 589 719 q 406 651 493 719 q 293 486 318 583 q 293 369 276 422 q 355 284 310 315 q 464 253 400 253 l 754 253 q 937 321 850 253 z "},"Ô":{"ha":1342,"x_min":4,"x_max":1339,"o":"m 946 972 q 1173 907 1078 972 q 1303 730 1268 842 q 1302 486 1338 618 q 1172 242 1267 354 q 947 65 1076 131 q 686 0 818 0 l 396 0 q 169 65 264 0 q 40 242 75 131 q 40 486 6 354 q 171 730 75 618 q 396 907 267 842 q 657 972 525 972 l 946 972 m 937 321 q 980 355 937 321 q 1050 486 1024 389 q 1026 651 1076 583 q 879 719 975 719 l 589 719 q 406 651 493 719 q 293 486 318 583 q 293 369 276 422 q 355 284 310 315 q 464 253 400 253 l 754 253 q 937 321 850 253 z "},"Õ":{"ha":1342,"x_min":4,"x_max":1339,"o":"m 946 972 q 1173 907 1078 972 q 1303 730 1268 842 q 1302 486 1338 618 q 1172 242 1267 354 q 947 65 1076 131 q 686 0 818 0 l 396 0 q 169 65 264 0 q 40 242 75 131 q 40 486 6 354 q 171 730 75 618 q 396 907 267 842 q 657 972 525 972 l 946 972 m 937 321 q 980 355 937 321 q 1050 486 1024 389 q 1026 651 1076 583 q 879 719 975 719 l 589 719 q 406 651 493 719 q 293 486 318 583 q 293 369 276 422 q 355 284 310 315 q 464 253 400 253 l 754 253 q 937 321 850 253 z "},"Ö":{"ha":1342,"x_min":4,"x_max":1339,"o":"m 946 972 q 1173 907 1078 972 q 1303 730 1268 842 q 1302 486 1338 618 q 1172 242 1267 354 q 947 65 1076 131 q 686 0 818 0 l 396 0 q 169 65 264 0 q 40 242 75 131 q 40 486 6 354 q 171 730 75 618 q 396 907 267 842 q 657 972 525 972 l 946 972 m 937 321 q 980 355 937 321 q 1050 486 1024 389 q 1026 651 1076 583 q 879 719 975 719 l 589 719 q 406 651 493 719 q 293 486 318 583 q 293 369 276 422 q 355 284 310 315 q 464 253 400 253 l 754 253 q 937 321 850 253 z "},"Ø":{"ha":1342,"x_min":4,"x_max":1339,"o":"m 946 972 q 1173 907 1078 972 q 1303 730 1268 842 q 1302 486 1338 618 q 1172 242 1267 354 q 947 65 1076 131 q 686 0 818 0 l 396 0 q 169 65 264 0 q 40 242 75 131 q 40 486 6 354 q 171 730 75 618 q 396 907 267 842 q 657 972 525 972 l 946 972 m 937 321 q 980 355 937 321 q 1050 486 1024 389 q 1026 651 1076 583 q 879 719 975 719 l 589 719 q 406 651 493 719 q 293 486 318 583 q 293 369 276 422 q 355 284 310 315 q 464 253 400 253 l 754 253 q 937 321 850 253 z "},"P":{"ha":1129,"x_min":-44,"x_max":1169,"o":"m 864 972 q 1092 866 1014 972 q 1129 610 1169 760 q 955 355 1089 461 q 671 249 821 249 l 275 249 l 208 0 l -44 0 l 22 249 l 50 350 l 217 972 l 864 972 m 814 510 q 837 528 814 510 q 873 597 860 546 q 860 683 886 647 q 783 719 833 719 l 401 719 l 335 474 l 717 474 q 814 510 768 474 z "},"Q":{"ha":1342,"x_min":4,"x_max":1339,"o":"m 946 972 q 1173 907 1078 972 q 1303 730 1268 842 q 1302 486 1338 618 q 1172 242 1267 354 q 947 65 1076 131 q 686 0 818 0 l 653 0 l 607 -174 l 382 -174 l 429 0 l 396 0 q 169 65 264 0 q 40 242 75 131 q 40 486 6 354 q 171 730 75 618 q 396 907 267 842 q 657 972 525 972 l 946 972 m 937 321 q 980 355 937 321 q 1050 486 1024 389 q 1026 651 1076 583 q 879 719 975 719 l 589 719 q 406 651 493 719 q 293 486 318 583 q 293 369 276 422 q 355 284 310 315 q 464 253 400 253 l 497 253 l 526 361 l 750 361 l 721 253 l 754 253 q 937 321 850 253 z "},"R":{"ha":1144,"x_min":-47,"x_max":1228,"o":"m 1185 -53 l 1228 -53 l 1167 -278 l 1125 -278 q 1075 -278 1103 -278 q 994 -277 1025 -278 q 926 -272 964 -276 q 863 -260 888 -268 q 811 -240 839 -253 q 765 -207 783 -226 q 727 -160 746 -187 q 693 -94 708 -132 q 657 0 668 -35 q 614 146 646 35 q 600 192 606 179 q 581 219 594 206 q 547 235 568 232 q 489 239 526 239 l 278 239 l 272 239 l 206 -10 l -47 -10 l 19 239 l 81 464 l 214 963 l 861 963 q 1089 856 1011 963 q 1126 601 1167 750 q 1029 420 1100 503 q 864 289 958 338 q 879 240 871 267 q 919 103 908 133 q 950 21 929 74 q 969 -16 961 -6 q 985 -37 976 -26 q 1024 -49 994 -47 q 1083 -51 1054 -50 q 1185 -53 1111 -53 m 714 464 q 811 500 765 464 q 870 587 857 536 q 857 674 883 638 q 781 710 831 710 l 399 710 l 332 464 l 339 464 l 567 464 q 574 464 569 464 q 579 464 578 464 l 714 464 z "},"S":{"ha":1176,"x_min":31,"x_max":1147,"o":"m 853 688 q 1069 587 994 688 q 1105 344 1143 486 q 939 101 1067 201 q 669 0 811 0 l 31 0 l 99 253 l 736 253 q 785 265 761 253 q 828 298 810 276 q 853 343 846 319 q 843 408 863 381 q 785 435 824 435 l 583 435 l 488 285 l 325 285 q 108 385 182 285 q 73 628 35 486 q 239 872 111 771 q 508 972 367 972 l 1147 972 l 1079 719 l 442 719 q 403 713 422 719 q 369 693 385 706 q 342 664 354 681 q 325 629 331 647 q 335 565 315 592 q 392 538 354 538 l 593 538 l 689 688 l 853 688 z "},"T":{"ha":1018,"x_min":81,"x_max":1131,"o":"m 1131 972 l 1063 719 l 699 719 l 506 0 l 253 0 l 446 719 l 82 719 l 149 972 l 1131 972 z "},"U":{"ha":1193,"x_min":32,"x_max":1265,"o":"m 1013 972 l 1265 972 l 1149 538 q 1004 268 1110 392 q 756 72 899 144 q 467 0 613 0 q 216 72 321 0 q 72 268 111 144 q 72 538 33 392 l 189 972 l 440 972 l 325 538 q 354 336 293 419 q 533 253 415 253 q 758 336 651 253 q 896 538 864 419 l 1013 972 z "},"Ù":{"ha":1193,"x_min":32,"x_max":1265,"o":"m 1013 972 l 1265 972 l 1149 538 q 1004 268 1110 392 q 756 72 899 144 q 467 0 613 0 q 216 72 321 0 q 72 268 111 144 q 72 538 33 392 l 189 972 l 440 972 l 325 538 q 354 336 293 419 q 533 253 415 253 q 758 336 651 253 q 896 538 864 419 l 1013 972 z "},"Ú":{"ha":1193,"x_min":32,"x_max":1265,"o":"m 1013 972 l 1265 972 l 1149 538 q 1004 268 1110 392 q 756 72 899 144 q 467 0 613 0 q 216 72 321 0 q 72 268 111 144 q 72 538 33 392 l 189 972 l 440 972 l 325 538 q 354 336 293 419 q 533 253 415 253 q 758 336 651 253 q 896 538 864 419 l 1013 972 z "},"Û":{"ha":1193,"x_min":32,"x_max":1265,"o":"m 1013 972 l 1265 972 l 1149 538 q 1004 268 1110 392 q 756 72 899 144 q 467 0 613 0 q 216 72 321 0 q 72 268 111 144 q 72 538 33 392 l 189 972 l 440 972 l 325 538 q 354 336 293 419 q 533 253 415 253 q 758 336 651 253 q 896 538 864 419 l 1013 972 z "},"Ü":{"ha":1193,"x_min":32,"x_max":1265,"o":"m 1013 972 l 1265 972 l 1149 538 q 1004 268 1110 392 q 756 72 899 144 q 467 0 613 0 q 216 72 321 0 q 72 268 111 144 q 72 538 33 392 l 189 972 l 440 972 l 325 538 q 354 336 293 419 q 533 253 415 253 q 758 336 651 253 q 896 538 864 419 l 1013 972 z "},"V":{"ha":1143,"x_min":129,"x_max":1272,"o":"m 990 972 l 1272 972 l 593 82 q 524 22 565 44 q 440 0 482 0 q 368 22 397 0 q 331 82 339 44 l 131 972 l 411 972 l 543 386 l 990 972 z "},"W":{"ha":1628,"x_min":50,"x_max":1729,"o":"m 1476 972 l 1728 972 q 1315 235 1621 572 l 1104 0 l 919 0 l 833 235 q 789 397 806 313 q 657 235 726 313 l 444 0 l 261 0 l 175 235 q 158 972 50 572 l 410 972 q 424 369 322 646 l 440 326 l 481 369 q 817 972 729 646 l 1069 972 q 1083 369 982 646 l 1099 326 l 1139 369 q 1476 972 1389 646 z "},"X":{"ha":1158,"x_min":-68,"x_max":1228,"o":"m 1226 972 l 1154 703 l 885 456 l 1031 243 l 965 0 l 714 0 l 751 142 l 626 322 l 453 322 l 222 140 l 185 0 l -68 0 l -3 244 l 264 456 l 119 701 l 193 972 l 446 972 l 397 794 l 526 575 l 689 575 l 926 793 l 974 972 l 1226 972 z "},"Y":{"ha":1099,"x_min":126,"x_max":1233,"o":"m 1233 972 l 617 267 l 546 0 l 293 0 l 365 267 l 128 972 l 422 972 l 565 546 l 938 972 l 1233 972 z "},"Ý":{"ha":1099,"x_min":126,"x_max":1233,"o":"m 1233 972 l 617 267 l 546 0 l 293 0 l 365 267 l 128 972 l 422 972 l 565 546 l 938 972 l 1233 972 z "},"Ÿ":{"ha":1099,"x_min":126,"x_max":1233,"o":"m 1233 972 l 617 267 l 546 0 l 293 0 l 365 267 l 128 972 l 422 972 l 565 546 l 938 972 l 1233 972 z "},"Z":{"ha":1175,"x_min":-35,"x_max":1199,"o":"m 957 972 q 1097 932 1039 972 q 1176 823 1154 892 q 1176 672 1199 754 q 1032 461 1143 549 q 797 374 921 374 l 333 374 q 285 356 308 374 q 256 313 263 339 q 262 270 249 288 q 300 253 275 253 l 1018 253 l 950 0 l 218 0 q 31 88 94 0 q 0 299 -33 175 q 144 511 33 424 q 379 599 256 599 l 843 599 q 891 616 868 599 q 920 659 914 633 q 914 702 926 685 q 875 719 901 719 l 158 719 l 225 972 l 957 972 z "},"_":{"ha":749,"x_min":-78,"x_max":610,"o":"m -25 179 l 610 179 l 557 -18 l -78 -18 l -25 179 z "},"a":{"ha":1204,"x_min":-3,"x_max":1196,"o":"m 919 972 q 1079 926 1013 972 q 1170 801 1146 881 q 1169 629 1194 722 l 1001 0 l 163 0 q 50 40 94 0 q 1 144 6 79 q 35 273 -3 208 q 138 378 72 338 l 688 719 l 104 719 l 172 972 l 919 972 m 817 253 l 908 594 l 358 253 l 817 253 z "},"à":{"ha":1204,"x_min":-3,"x_max":1196,"o":"m 919 972 q 1079 926 1013 972 q 1170 801 1146 881 q 1169 629 1194 722 l 1001 0 l 163 0 q 50 40 94 0 q 1 144 6 79 q 35 273 -3 208 q 138 378 72 338 l 688 719 l 104 719 l 172 972 l 919 972 m 817 253 l 908 594 l 358 253 l 817 253 z "},"á":{"ha":1204,"x_min":-3,"x_max":1196,"o":"m 919 972 q 1079 926 1013 972 q 1170 801 1146 881 q 1169 629 1194 722 l 1001 0 l 163 0 q 50 40 94 0 q 1 144 6 79 q 35 273 -3 208 q 138 378 72 338 l 688 719 l 104 719 l 172 972 l 919 972 m 817 253 l 908 594 l 358 253 l 817 253 z "},"â":{"ha":1204,"x_min":-3,"x_max":1196,"o":"m 919 972 q 1079 926 1013 972 q 1170 801 1146 881 q 1169 629 1194 722 l 1001 0 l 163 0 q 50 40 94 0 q 1 144 6 79 q 35 273 -3 208 q 138 378 72 338 l 688 719 l 104 719 l 172 972 l 919 972 m 817 253 l 908 594 l 358 253 l 817 253 z "},"ã":{"ha":1204,"x_min":-3,"x_max":1196,"o":"m 919 972 q 1079 926 1013 972 q 1170 801 1146 881 q 1169 629 1194 722 l 1001 0 l 163 0 q 50 40 94 0 q 1 144 6 79 q 35 273 -3 208 q 138 378 72 338 l 688 719 l 104 719 l 172 972 l 919 972 m 817 253 l 908 594 l 358 253 l 817 253 z "},"ä":{"ha":1204,"x_min":-3,"x_max":1196,"o":"m 919 972 q 1079 926 1013 972 q 1170 801 1146 881 q 1169 629 1194 722 l 1001 0 l 163 0 q 50 40 94 0 q 1 144 6 79 q 35 273 -3 208 q 138 378 72 338 l 688 719 l 104 719 l 172 972 l 919 972 m 817 253 l 908 594 l 358 253 l 817 253 z "},"å":{"ha":1204,"x_min":-3,"x_max":1196,"o":"m 919 972 q 1079 926 1013 972 q 1170 801 1146 881 q 1169 629 1194 722 l 1001 0 l 163 0 q 50 40 94 0 q 1 144 6 79 q 35 273 -3 208 q 138 378 72 338 l 688 719 l 104 719 l 172 972 l 919 972 m 817 253 l 908 594 l 358 253 l 817 253 z "},"b":{"ha":1199,"x_min":-44,"x_max":1181,"o":"m 857 767 q 1097 654 1015 767 q 1137 383 1179 542 q 952 113 1094 225 q 651 0 810 0 l -44 0 l 217 972 l 469 972 l 414 767 l 857 767 m 819 293 q 845 313 819 293 q 887 391 871 333 q 873 490 903 449 q 785 531 843 531 l 350 531 l 276 253 l 711 253 q 819 293 768 253 z "},"c":{"ha":1038,"x_min":26,"x_max":1114,"o":"m 378 719 l 315 486 q 339 321 289 389 q 486 253 389 253 l 921 253 l 853 0 l 418 0 q 192 65 286 0 q 63 242 97 131 q 63 486 28 354 l 193 972 l 1114 972 l 1046 719 l 378 719 z "},"ç":{"ha":1038,"x_min":26,"x_max":1114,"o":"m 378 719 l 315 486 q 339 321 289 389 q 486 253 389 253 l 921 253 l 853 0 l 418 0 q 192 65 286 0 q 63 242 97 131 q 63 486 28 354 l 193 972 l 1114 972 l 1046 719 l 378 719 z "},"d":{"ha":1200,"x_min":-36,"x_max":1244,"o":"m 992 972 l 1244 972 l 983 0 l 288 0 q 47 113 129 0 q 8 383 -35 225 q 192 654 50 542 q 493 767 335 767 l 936 767 l 992 972 m 364 253 l 799 253 l 874 531 l 439 531 q 329 490 381 531 q 263 391 278 449 q 276 293 247 333 q 364 253 306 253 z "},"e":{"ha":1135,"x_min":4,"x_max":1201,"o":"m 589 719 q 460 687 524 719 q 351 599 397 654 l 1021 599 l 960 374 l 292 374 q 353 285 307 318 q 464 253 399 253 l 1008 253 l 940 0 l 396 0 q 169 65 264 0 q 40 242 75 131 q 40 486 6 354 q 171 730 75 618 q 396 907 267 842 q 657 972 525 972 l 1201 972 l 1133 719 l 589 719 z "},"è":{"ha":1135,"x_min":4,"x_max":1201,"o":"m 589 719 q 460 687 524 719 q 351 599 397 654 l 1021 599 l 960 374 l 292 374 q 353 285 307 318 q 464 253 399 253 l 1008 253 l 940 0 l 396 0 q 169 65 264 0 q 40 242 75 131 q 40 486 6 354 q 171 730 75 618 q 396 907 267 842 q 657 972 525 972 l 1201 972 l 1133 719 l 589 719 z "},"é":{"ha":1135,"x_min":4,"x_max":1201,"o":"m 589 719 q 460 687 524 719 q 351 599 397 654 l 1021 599 l 960 374 l 292 374 q 353 285 307 318 q 464 253 399 253 l 1008 253 l 940 0 l 396 0 q 169 65 264 0 q 40 242 75 131 q 40 486 6 354 q 171 730 75 618 q 396 907 267 842 q 657 972 525 972 l 1201 972 l 1133 719 l 589 719 z "},"ê":{"ha":1135,"x_min":4,"x_max":1201,"o":"m 589 719 q 460 687 524 719 q 351 599 397 654 l 1021 599 l 960 374 l 292 374 q 353 285 307 318 q 464 253 399 253 l 1008 253 l 940 0 l 396 0 q 169 65 264 0 q 40 242 75 131 q 40 486 6 354 q 171 730 75 618 q 396 907 267 842 q 657 972 525 972 l 1201 972 l 1133 719 l 589 719 z "},"ë":{"ha":1135,"x_min":4,"x_max":1201,"o":"m 589 719 q 460 687 524 719 q 351 599 397 654 l 1021 599 l 960 374 l 292 374 q 353 285 307 318 q 464 253 399 253 l 1008 253 l 940 0 l 396 0 q 169 65 264 0 q 40 242 75 131 q 40 486 6 354 q 171 730 75 618 q 396 907 267 842 q 657 972 525 972 l 1201 972 l 1133 719 l 589 719 z "},"f":{"ha":1122,"x_min":-111,"x_max":1228,"o":"m 614 719 q 442 659 525 719 q 326 511 358 599 l 963 511 l 901 286 l 265 286 l 142 -174 l -111 -174 l 65 486 q 197 730 101 618 q 421 907 292 842 q 682 972 550 972 l 1226 972 l 1160 719 l 614 719 z "},"g":{"ha":1225,"x_min":4,"x_max":1193,"o":"m 1193 599 l 1133 374 l 1032 0 l 396 0 q 169 65 264 0 q 40 242 75 131 q 40 486 6 354 q 129 675 67 585 q 274 830 192 765 q 458 933 357 894 q 657 972 558 972 l 1167 972 l 1099 719 l 589 719 q 406 651 493 719 q 293 486 318 583 q 293 369 276 422 q 355 284 310 315 q 464 253 400 253 l 847 253 l 881 374 l 610 374 l 671 599 l 1193 599 z "},"h":{"ha":1219,"x_min":-44,"x_max":1264,"o":"m 1011 972 l 1264 972 l 1003 0 l 750 0 l 846 357 l 304 357 l 208 0 l -44 0 l 217 972 l 469 972 l 364 581 l 906 581 l 1011 972 z "},"i":{"ha":425,"x_min":-44,"x_max":469,"o":"m 217 972 l 469 972 l 208 0 l -44 0 l 217 972 z "},"ì":{"ha":425,"x_min":-44,"x_max":469,"o":"m 217 972 l 469 972 l 208 0 l -44 0 l 217 972 z "},"í":{"ha":425,"x_min":-44,"x_max":469,"o":"m 217 972 l 469 972 l 208 0 l -44 0 l 217 972 z "},"î":{"ha":425,"x_min":-44,"x_max":469,"o":"m 217 972 l 469 972 l 208 0 l -44 0 l 217 972 z "},"ï":{"ha":425,"x_min":-44,"x_max":469,"o":"m 217 972 l 469 972 l 208 0 l -44 0 l 217 972 z "},"j":{"ha":974,"x_min":-111,"x_max":1040,"o":"m 788 972 l 1040 972 l 910 486 q 780 242 875 354 q 555 65 685 131 q 293 0 425 0 l -111 0 l -43 253 l 361 253 q 545 321 458 253 q 657 486 632 389 l 788 972 z "},"k":{"ha":1193,"x_min":-53,"x_max":1340,"o":"m 1182 -53 l 1340 -53 l 1279 -278 l 1068 -278 q 908 -240 979 -278 q 799 -135 838 -203 l 368 617 l 200 -10 l -53 -10 l 149 743 q 216 862 167 807 q 331 939 265 917 q 458 948 400 964 q 546 881 517 932 l 707 600 q 783 636 747 611 q 846 697 819 661 q 883 774 872 733 l 933 963 l 1186 963 l 1136 774 q 1019 558 1104 657 q 821 400 935 458 l 1038 25 q 1182 -53 1082 -53 z "},"l":{"ha":894,"x_min":-44,"x_max":814,"o":"m 276 253 l 814 253 l 746 0 l -44 0 l 217 972 l 469 972 l 276 253 z "},"m":{"ha":1440,"x_min":-53,"x_max":1438,"o":"m 1206 972 q 1340 934 1285 972 q 1417 829 1396 896 q 1417 685 1438 763 l 1233 0 l 981 0 l 1164 685 q 1165 698 1167 692 q 1160 709 1164 704 q 1151 717 1157 714 q 1139 719 1146 719 q 1110 710 1124 719 q 1094 685 1097 700 l 994 311 q 910 155 971 226 q 767 42 850 83 q 600 0 683 0 q 404 91 471 0 q 372 311 338 182 l 472 685 q 469 710 476 700 q 447 719 461 719 l 428 719 q 401 710 414 719 q 383 685 388 700 l 200 0 l -53 0 l 131 685 q 269 888 163 804 q 496 972 376 972 l 514 972 q 648 934 592 972 q 725 829 704 896 q 725 685 746 763 l 625 311 q 625 281 621 294 q 640 260 629 268 q 667 253 651 253 q 713 269 692 253 q 742 311 735 286 l 842 685 q 981 888 874 804 q 1206 972 1088 972 z "},"n":{"ha":1156,"x_min":-68,"x_max":1125,"o":"m 432 903 q 501 938 432 903 q 710 972 569 972 q 950 903 850 972 q 1088 715 1050 833 q 1088 456 1125 596 l 965 0 l 713 0 l 835 456 q 808 642 864 565 q 642 719 751 719 q 434 642 532 719 q 307 456 336 565 l 185 0 l -68 0 l 54 456 q 193 715 92 596 q 432 903 294 833 z "},"ñ":{"ha":1156,"x_min":-68,"x_max":1125,"o":"m 432 903 q 501 938 432 903 q 710 972 569 972 q 950 903 850 972 q 1088 715 1050 833 q 1088 456 1125 596 l 965 0 l 713 0 l 835 456 q 808 642 864 565 q 642 719 751 719 q 434 642 532 719 q 307 456 336 565 l 185 0 l -68 0 l 54 456 q 193 715 92 596 q 432 903 294 833 z "},"o":{"ha":1219,"x_min":22,"x_max":1253,"o":"m 740 974 q 1025 944 939 974 q 1182 542 1251 868 q 1169 488 1176 515 q 946 99 1096 215 q 788 19 869 39 q 604 0 707 0 q 543 1 583 0 q 481 1 499 1 q 374 3 411 1 q 271 13 336 4 q 170 40 206 22 q 93 92 135 57 q 37 178 51 128 q 24 308 22 229 q 51 488 25 386 q 356 913 136 803 q 484 955 413 940 q 603 972 556 969 q 740 974 651 974 m 917 488 q 935 565 928 532 q 939 623 942 597 q 933 665 936 649 q 910 692 931 681 q 876 710 890 704 q 823 718 863 715 q 758 721 783 721 q 672 721 732 721 q 573 720 607 721 q 494 713 539 719 q 422 693 449 707 q 304 488 350 657 q 285 410 292 443 q 282 352 279 378 q 288 310 285 326 q 310 283 290 294 q 344 267 331 272 q 397 258 358 261 q 463 254 436 254 q 547 254 489 254 q 615 253 571 254 q 697 253 660 253 q 767 259 735 253 q 817 278 800 265 q 917 488 872 321 z "},"ò":{"ha":1219,"x_min":22,"x_max":1253,"o":"m 740 974 q 1025 944 939 974 q 1182 542 1251 868 q 1169 488 1176 515 q 946 99 1096 215 q 788 19 869 39 q 604 0 707 0 q 543 1 583 0 q 481 1 499 1 q 374 3 411 1 q 271 13 336 4 q 170 40 206 22 q 93 92 135 57 q 37 178 51 128 q 24 308 22 229 q 51 488 25 386 q 356 913 136 803 q 484 955 413 940 q 603 972 556 969 q 740 974 651 974 m 917 488 q 935 565 928 532 q 939 623 942 597 q 933 665 936 649 q 910 692 931 681 q 876 710 890 704 q 823 718 863 715 q 758 721 783 721 q 672 721 732 721 q 573 720 607 721 q 494 713 539 719 q 422 693 449 707 q 304 488 350 657 q 285 410 292 443 q 282 352 279 378 q 288 310 285 326 q 310 283 290 294 q 344 267 331 272 q 397 258 358 261 q 463 254 436 254 q 547 254 489 254 q 615 253 571 254 q 697 253 660 253 q 767 259 735 253 q 817 278 800 265 q 917 488 872 321 z "},"ó":{"ha":1219,"x_min":22,"x_max":1253,"o":"m 740 974 q 1025 944 939 974 q 1182 542 1251 868 q 1169 488 1176 515 q 946 99 1096 215 q 788 19 869 39 q 604 0 707 0 q 543 1 583 0 q 481 1 499 1 q 374 3 411 1 q 271 13 336 4 q 170 40 206 22 q 93 92 135 57 q 37 178 51 128 q 24 308 22 229 q 51 488 25 386 q 356 913 136 803 q 484 955 413 940 q 603 972 556 969 q 740 974 651 974 m 917 488 q 935 565 928 532 q 939 623 942 597 q 933 665 936 649 q 910 692 931 681 q 876 710 890 704 q 823 718 863 715 q 758 721 783 721 q 672 721 732 721 q 573 720 607 721 q 494 713 539 719 q 422 693 449 707 q 304 488 350 657 q 285 410 292 443 q 282 352 279 378 q 288 310 285 326 q 310 283 290 294 q 344 267 331 272 q 397 258 358 261 q 463 254 436 254 q 547 254 489 254 q 615 253 571 254 q 697 253 660 253 q 767 259 735 253 q 817 278 800 265 q 917 488 872 321 z "},"ô":{"ha":1219,"x_min":22,"x_max":1253,"o":"m 740 974 q 1025 944 939 974 q 1182 542 1251 868 q 1169 488 1176 515 q 946 99 1096 215 q 788 19 869 39 q 604 0 707 0 q 543 1 583 0 q 481 1 499 1 q 374 3 411 1 q 271 13 336 4 q 170 40 206 22 q 93 92 135 57 q 37 178 51 128 q 24 308 22 229 q 51 488 25 386 q 356 913 136 803 q 484 955 413 940 q 603 972 556 969 q 740 974 651 974 m 917 488 q 935 565 928 532 q 939 623 942 597 q 933 665 936 649 q 910 692 931 681 q 876 710 890 704 q 823 718 863 715 q 758 721 783 721 q 672 721 732 721 q 573 720 607 721 q 494 713 539 719 q 422 693 449 707 q 304 488 350 657 q 285 410 292 443 q 282 352 279 378 q 288 310 285 326 q 310 283 290 294 q 344 267 331 272 q 397 258 358 261 q 463 254 436 254 q 547 254 489 254 q 615 253 571 254 q 697 253 660 253 q 767 259 735 253 q 817 278 800 265 q 917 488 872 321 z "},"õ":{"ha":1219,"x_min":22,"x_max":1253,"o":"m 740 974 q 1025 944 939 974 q 1182 542 1251 868 q 1169 488 1176 515 q 946 99 1096 215 q 788 19 869 39 q 604 0 707 0 q 543 1 583 0 q 481 1 499 1 q 374 3 411 1 q 271 13 336 4 q 170 40 206 22 q 93 92 135 57 q 37 178 51 128 q 24 308 22 229 q 51 488 25 386 q 356 913 136 803 q 484 955 413 940 q 603 972 556 969 q 740 974 651 974 m 917 488 q 935 565 928 532 q 939 623 942 597 q 933 665 936 649 q 910 692 931 681 q 876 710 890 704 q 823 718 863 715 q 758 721 783 721 q 672 721 732 721 q 573 720 607 721 q 494 713 539 719 q 422 693 449 707 q 304 488 350 657 q 285 410 292 443 q 282 352 279 378 q 288 310 285 326 q 310 283 290 294 q 344 267 331 272 q 397 258 358 261 q 463 254 436 254 q 547 254 489 254 q 615 253 571 254 q 697 253 660 253 q 767 259 735 253 q 817 278 800 265 q 917 488 872 321 z "},"ö":{"ha":1219,"x_min":22,"x_max":1253,"o":"m 740 974 q 1025 944 939 974 q 1182 542 1251 868 q 1169 488 1176 515 q 946 99 1096 215 q 788 19 869 39 q 604 0 707 0 q 543 1 583 0 q 481 1 499 1 q 374 3 411 1 q 271 13 336 4 q 170 40 206 22 q 93 92 135 57 q 37 178 51 128 q 24 308 22 229 q 51 488 25 386 q 356 913 136 803 q 484 955 413 940 q 603 972 556 969 q 740 974 651 974 m 917 488 q 935 565 928 532 q 939 623 942 597 q 933 665 936 649 q 910 692 931 681 q 876 710 890 704 q 823 718 863 715 q 758 721 783 721 q 672 721 732 721 q 573 720 607 721 q 494 713 539 719 q 422 693 449 707 q 304 488 350 657 q 285 410 292 443 q 282 352 279 378 q 288 310 285 326 q 310 283 290 294 q 344 267 331 272 q 397 258 358 261 q 463 254 436 254 q 547 254 489 254 q 615 253 571 254 q 697 253 660 253 q 767 259 735 253 q 817 278 800 265 q 917 488 872 321 z "},"ø":{"ha":1219,"x_min":22,"x_max":1253,"o":"m 740 974 q 1025 944 939 974 q 1182 542 1251 868 q 1169 488 1176 515 q 946 99 1096 215 q 788 19 869 39 q 604 0 707 0 q 543 1 583 0 q 481 1 499 1 q 374 3 411 1 q 271 13 336 4 q 170 40 206 22 q 93 92 135 57 q 37 178 51 128 q 24 308 22 229 q 51 488 25 386 q 356 913 136 803 q 484 955 413 940 q 603 972 556 969 q 740 974 651 974 m 917 488 q 935 565 928 532 q 939 623 942 597 q 933 665 936 649 q 910 692 931 681 q 876 710 890 704 q 823 718 863 715 q 758 721 783 721 q 672 721 732 721 q 573 720 607 721 q 494 713 539 719 q 422 693 449 707 q 304 488 350 657 q 285 410 292 443 q 282 352 279 378 q 288 310 285 326 q 310 283 290 294 q 344 267 331 272 q 397 258 358 261 q 463 254 436 254 q 547 254 489 254 q 615 253 571 254 q 697 253 660 253 q 767 259 735 253 q 817 278 800 265 q 917 488 872 321 z "},"p":{"ha":1118,"x_min":-56,"x_max":1158,"o":"m 853 972 q 1081 867 1003 972 q 1118 611 1158 761 q 944 355 1078 461 q 660 249 810 249 l 264 249 l 197 0 l -56 0 l 11 249 l 72 474 l 706 474 q 803 510 757 474 q 862 597 849 546 q 849 683 875 647 q 772 719 822 719 l 138 719 l 206 972 l 853 972 z "},"q":{"ha":1053,"x_min":-6,"x_max":1049,"o":"m 657 972 q 883 907 789 972 q 1013 730 978 842 q 1013 486 1047 618 q 826 184 967 315 q 513 14 685 53 l 476 -117 l 253 -117 l 288 14 q 65 184 136 53 q 40 486 -6 315 q 129 675 67 585 q 274 830 192 765 q 458 933 357 894 q 657 972 558 972 m 760 486 q 736 651 786 583 q 589 719 686 719 q 513 708 551 719 q 439 674 474 696 q 375 624 404 653 q 324 560 346 596 q 293 486 303 524 q 294 366 275 421 q 360 281 313 311 l 381 361 l 606 361 l 583 281 q 695 366 647 311 q 760 486 743 421 z "},"r":{"ha":1133,"x_min":-58,"x_max":1217,"o":"m 1174 -53 l 1217 -53 l 1156 -278 l 1114 -278 q 1064 -278 1092 -278 q 971 -276 1006 -278 q 894 -269 936 -275 q 824 -252 851 -264 q 769 -220 797 -240 q 721 -169 742 -200 q 682 -94 700 -137 q 656 -28 664 -51 q 637 31 647 -4 q 603 146 626 65 q 589 192 594 179 q 570 219 583 206 q 536 235 557 232 q 478 239 515 239 l 267 239 l 261 239 l 194 -10 l -58 -10 l 8 239 l 69 464 l 328 464 l 556 464 q 560 464 558 464 q 565 464 563 464 q 568 464 567 464 l 703 464 q 800 500 754 464 q 860 588 846 536 q 863 635 867 613 q 847 674 858 657 q 815 700 835 690 q 769 710 794 710 l 135 710 l 203 963 l 850 963 q 1078 856 1000 963 q 1115 601 1156 750 q 1018 419 1089 503 q 853 289 947 336 q 868 240 861 267 q 899 131 889 164 q 917 79 910 99 q 939 21 924 60 q 958 -16 950 -6 q 974 -37 965 -26 q 1013 -49 983 -47 q 1072 -51 1043 -50 q 1174 -53 1100 -53 z "},"s":{"ha":1174,"x_min":-36,"x_max":1210,"o":"m 425 719 q 377 702 400 719 q 347 658 354 685 q 347 628 343 643 q 363 606 351 614 q 392 599 375 599 l 856 599 q 1044 511 981 599 q 1075 299 1108 424 q 931 88 1042 175 q 696 0 819 0 l -36 0 l 32 253 l 750 253 q 797 270 775 253 q 826 313 819 288 q 820 356 833 339 q 782 374 807 374 l 318 374 q 130 461 194 374 q 99 673 65 549 q 243 885 132 797 q 478 972 354 972 l 1210 972 l 1142 719 l 425 719 z "},"t":{"ha":1044,"x_min":81,"x_max":1122,"o":"m 689 719 l 611 428 q 629 304 592 356 q 739 253 667 253 l 928 253 l 861 0 l 671 0 q 472 58 556 0 q 358 213 389 115 q 358 428 328 311 l 436 719 l 82 719 l 149 972 l 1121 972 l 1054 719 l 689 719 z "},"u":{"ha":1193,"x_min":32,"x_max":1265,"o":"m 1013 972 l 1265 972 l 1149 538 q 1004 268 1110 392 q 756 72 899 144 q 467 0 613 0 q 216 72 321 0 q 72 268 111 144 q 72 538 33 392 l 189 972 l 440 972 l 325 538 q 354 336 293 419 q 533 253 415 253 q 758 336 651 253 q 896 538 864 419 l 1013 972 z "},"ù":{"ha":1193,"x_min":32,"x_max":1265,"o":"m 1013 972 l 1265 972 l 1149 538 q 1004 268 1110 392 q 756 72 899 144 q 467 0 613 0 q 216 72 321 0 q 72 268 111 144 q 72 538 33 392 l 189 972 l 440 972 l 325 538 q 354 336 293 419 q 533 253 415 253 q 758 336 651 253 q 896 538 864 419 l 1013 972 z "},"ú":{"ha":1193,"x_min":32,"x_max":1265,"o":"m 1013 972 l 1265 972 l 1149 538 q 1004 268 1110 392 q 756 72 899 144 q 467 0 613 0 q 216 72 321 0 q 72 268 111 144 q 72 538 33 392 l 189 972 l 440 972 l 325 538 q 354 336 293 419 q 533 253 415 253 q 758 336 651 253 q 896 538 864 419 l 1013 972 z "},"û":{"ha":1193,"x_min":32,"x_max":1265,"o":"m 1013 972 l 1265 972 l 1149 538 q 1004 268 1110 392 q 756 72 899 144 q 467 0 613 0 q 216 72 321 0 q 72 268 111 144 q 72 538 33 392 l 189 972 l 440 972 l 325 538 q 354 336 293 419 q 533 253 415 253 q 758 336 651 253 q 896 538 864 419 l 1013 972 z "},"ü":{"ha":1193,"x_min":32,"x_max":1265,"o":"m 1013 972 l 1265 972 l 1149 538 q 1004 268 1110 392 q 756 72 899 144 q 467 0 613 0 q 216 72 321 0 q 72 268 111 144 q 72 538 33 392 l 189 972 l 440 972 l 325 538 q 354 336 293 419 q 533 253 415 253 q 758 336 651 253 q 896 538 864 419 l 1013 972 z "},"v":{"ha":1022,"x_min":103,"x_max":1125,"o":"m 872 972 l 1125 972 q 1029 714 1089 842 q 886 466 969 586 q 699 238 803 346 l 471 0 l 289 0 l 189 238 q 113 588 121 400 q 157 972 104 775 l 410 972 q 435 382 322 649 l 464 313 l 529 382 q 872 972 785 649 z "},"w":{"ha":1438,"x_min":-7,"x_max":1494,"o":"m 1242 979 l 1494 979 l 1311 294 q 1172 91 1279 175 q 946 7 1065 7 l 928 7 q 747 91 808 7 q 717 294 685 175 l 817 668 q 811 710 824 693 q 774 726 799 726 q 728 710 750 726 q 700 668 707 693 l 600 294 q 461 91 568 175 q 235 7 354 7 q 55 91 117 7 q 25 294 -7 175 l 208 979 l 461 979 l 278 294 q 281 270 274 281 q 303 260 289 260 q 322 265 313 260 q 338 277 332 269 q 347 294 344 285 l 447 668 q 505 790 465 732 q 597 889 544 847 q 715 955 650 931 q 842 979 779 979 q 1038 888 971 979 q 1069 668 1104 797 l 969 294 q 968 281 967 288 q 973 270 969 275 q 982 263 976 265 q 994 260 988 260 l 1014 260 q 1041 270 1028 260 q 1058 294 1054 281 l 1242 979 z "},"x":{"ha":1153,"x_min":-115,"x_max":1261,"o":"m 1260 972 l 843 493 l 1008 0 l 714 0 l 590 368 l 500 368 l 181 0 l -115 0 l 315 493 l 154 972 l 450 972 l 568 619 l 658 619 l 965 972 l 1260 972 z "},"y":{"ha":1129,"x_min":-15,"x_max":1186,"o":"m 933 972 l 1185 972 l 1014 335 q 853 98 978 196 q 590 0 728 0 l -15 0 l 53 253 l 657 253 q 722 277 692 253 q 763 335 753 301 l 764 343 l 436 343 q 238 400 321 343 q 124 556 154 457 q 124 769 93 654 l 178 972 l 431 972 l 376 769 q 376 682 364 722 q 423 618 389 642 q 504 594 457 594 l 832 594 l 933 972 z "},"ý":{"ha":1129,"x_min":-15,"x_max":1186,"o":"m 933 972 l 1185 972 l 1014 335 q 853 98 978 196 q 590 0 728 0 l -15 0 l 53 253 l 657 253 q 722 277 692 253 q 763 335 753 301 l 764 343 l 436 343 q 238 400 321 343 q 124 556 154 457 q 124 769 93 654 l 178 972 l 431 972 l 376 769 q 376 682 364 722 q 423 618 389 642 q 504 594 457 594 l 832 594 l 933 972 z "},"ÿ":{"ha":1129,"x_min":-15,"x_max":1186,"o":"m 933 972 l 1185 972 l 1014 335 q 853 98 978 196 q 590 0 728 0 l -15 0 l 53 253 l 657 253 q 722 277 692 253 q 763 335 753 301 l 764 343 l 436 343 q 238 400 321 343 q 124 556 154 457 q 124 769 93 654 l 178 972 l 431 972 l 376 769 q 376 682 364 722 q 423 618 389 642 q 504 594 457 594 l 832 594 l 933 972 z "},"z":{"ha":1071,"x_min":-74,"x_max":1118,"o":"m 983 972 q 1076 941 1040 972 q 1115 859 1113 910 q 1085 759 1117 808 q 997 681 1053 710 q 899 631 965 664 q 606 460 774 568 q 325 253 438 351 l 957 253 l 889 0 l -74 0 l -39 126 q 42 287 -18 207 q 197 442 103 367 q 392 583 290 518 q 628 719 494 647 l 119 719 l 188 972 l 983 972 z "},"~":{"ha":789,"x_min":29,"x_max":715,"o":"m 586 521 l 715 407 l 676 368 q 440 236 564 253 q 408 235 424 235 q 256 297 317 235 q 151 285 217 339 l 136 272 l 29 408 l 44 419 q 249 511 146 503 q 421 449 353 519 q 467 431 442 428 q 547 482 503 436 l 586 521 z "}," ":{"ha":571,"x_min":0,"x_max":0,"o":""},"­":{"ha":0,"x_min":0,"x_max":0,"o":""},"×":{"ha":719,"x_min":10,"x_max":682,"o":"m 682 589 l 485 433 l 599 278 l 422 140 l 308 294 l 113 140 l 11 278 l 207 433 l 94 589 l 269 728 l 383 572 l 579 728 l 682 589 z "},"÷":{"ha":760,"x_min":21,"x_max":710,"o":"m 394 240 q 415 234 407 240 q 427 217 424 228 q 428 194 431 207 l 385 33 q 363 1 379 14 q 326 -12 346 -12 l 165 -12 q 136 1 146 -12 q 132 33 126 14 l 175 194 q 197 227 181 214 q 232 240 214 240 l 394 240 m 336 626 q 315 633 324 626 q 303 649 307 639 q 303 672 300 660 l 346 835 q 368 866 351 853 q 404 879 385 879 l 565 879 q 594 866 585 879 q 599 835 604 853 l 556 672 q 544 649 553 660 q 522 633 535 639 q 499 626 510 626 l 336 626 m 74 532 l 708 532 l 656 335 l 22 335 l 74 532 z "},"‘":{"ha":389,"x_min":96,"x_max":411,"o":"m 394 832 q 407 826 403 832 q 408 813 411 821 l 351 599 q 326 579 346 579 l 114 579 q 101 585 106 579 q 99 599 97 592 l 160 826 q 165 836 161 832 l 276 963 q 296 972 285 972 l 376 972 q 390 963 388 972 q 385 943 393 953 l 314 861 q 308 842 306 851 q 322 832 311 832 l 394 832 z "},"’":{"ha":386,"x_min":132,"x_max":447,"o":"m 431 972 q 443 967 439 972 q 444 953 447 961 l 383 725 q 378 715 382 719 l 267 589 q 247 579 258 579 l 167 579 q 153 590 156 579 q 158 610 150 600 l 229 690 q 235 710 239 700 q 221 719 232 719 l 149 719 q 138 725 142 719 q 135 739 133 731 l 192 953 q 217 972 197 972 l 431 972 z "},"“":{"ha":660,"x_min":93,"x_max":683,"o":"m 392 832 q 404 826 400 832 q 406 813 408 821 l 349 599 q 324 579 343 579 l 111 579 q 99 585 103 579 q 96 599 94 592 l 157 826 q 163 836 158 832 l 274 963 q 293 972 282 972 l 374 972 q 388 963 385 972 q 382 943 390 953 l 311 861 q 306 842 303 851 q 319 832 308 832 l 392 832 m 667 832 q 679 826 675 832 q 681 813 683 821 l 624 599 q 599 579 618 579 l 386 579 q 374 585 378 579 q 371 599 369 592 l 432 826 q 438 836 433 832 l 549 963 q 568 972 557 972 l 649 972 q 663 963 660 972 q 657 943 667 953 l 586 861 q 581 842 578 851 q 594 832 583 832 l 667 832 z "},"”":{"ha":654,"x_min":128,"x_max":718,"o":"m 701 972 q 714 967 710 972 q 715 953 718 961 l 654 725 q 649 715 653 719 l 538 589 q 518 579 529 579 l 439 579 q 424 590 426 579 q 429 610 421 600 l 501 690 q 507 710 510 700 q 492 719 504 719 l 421 719 q 408 725 413 719 q 406 739 404 731 l 463 953 q 488 972 468 972 l 701 972 m 426 972 q 439 967 435 972 q 440 953 443 961 l 379 725 q 374 715 378 719 l 263 589 q 243 579 254 579 l 163 579 q 149 590 151 579 q 154 610 146 600 l 225 690 q 231 710 235 700 q 217 719 228 719 l 144 719 q 133 725 138 719 q 131 739 129 731 l 188 953 q 213 972 193 972 l 426 972 z "},"":{"ha":1147,"x_min":88,"x_max":1061,"o":"m 330 907 q 386 940 330 907 q 574 972 442 972 q 817 907 706 972 q 994 730 929 842 q 1060 486 1060 618 q 994 242 1060 354 q 817 65 929 131 q 574 0 706 0 q 330 65 442 0 q 153 242 218 131 q 88 486 88 354 q 153 730 88 618 q 330 907 218 842 m 574 253 q 691 284 638 253 q 776 369 744 315 q 807 486 807 422 q 739 651 807 583 q 574 719 671 719 q 409 651 478 719 q 340 486 340 583 q 409 321 340 389 q 574 253 478 253 z "},"":{"ha":3664,"x_min":17,"x_max":3631,"o":"m 3336 678 q 3552 577 3478 678 q 3588 334 3626 476 q 3422 91 3550 192 q 3153 -10 3294 -10 l 2514 -10 l 2582 243 l 3219 243 q 3291 269 3257 243 q 3335 333 3325 296 q 3326 398 3346 371 q 3268 425 3307 425 l 3067 425 l 2971 275 l 2808 275 q 2592 376 2665 275 q 2556 619 2518 476 q 2722 862 2594 761 q 2992 963 2850 963 l 3631 963 l 3563 710 l 2925 710 q 2853 683 2886 710 q 2809 619 2819 657 q 2818 554 2799 581 q 2875 528 2838 528 l 3076 528 l 3172 678 l 3336 678 m 738 963 q 819 962 790 963 q 900 957 847 961 q 983 944 953 953 q 1055 919 1013 936 q 1119 879 1097 903 q 1165 818 1142 856 q 1192 733 1188 781 q 1192 621 1197 686 q 1165 476 1188 556 q 943 88 1093 204 q 785 8 867 28 q 600 -11 703 -11 q 540 -11 581 -11 q 476 -10 496 -10 q 395 -9 424 -10 q 314 -4 367 -8 q 231 8 261 0 q 159 33 201 17 q 95 74 117 50 q 51 134 74 97 q 22 219 28 171 q 22 332 17 267 q 49 476 28 397 q 353 900 133 792 q 481 944 410 929 q 601 960 553 958 q 738 963 649 963 m 914 476 q 932 553 925 521 q 936 612 939 586 q 931 653 933 638 q 907 681 928 669 q 873 697 886 692 q 820 706 860 703 q 755 710 781 710 q 669 710 729 710 q 570 709 604 710 q 491 701 536 708 q 419 682 446 694 q 301 476 346 646 q 283 399 289 432 q 279 341 276 367 q 285 299 282 315 q 308 272 288 283 q 342 256 328 261 q 394 247 356 250 q 460 243 433 243 q 544 243 486 243 q 611 242 568 243 q 694 242 657 242 q 765 248 732 242 q 814 267 797 254 q 914 476 868 310 m 2201 21 q 2253 -44 2224 -35 q 2436 -53 2282 -53 l 2478 -53 l 2418 -278 l 2376 -278 q 2326 -278 2354 -278 q 2233 -276 2268 -278 q 2155 -269 2197 -275 q 2086 -252 2113 -264 q 2031 -220 2060 -240 q 1982 -169 2003 -200 q 1943 -94 1961 -137 q 1908 0 1919 -35 q 1865 146 1897 35 q 1851 192 1856 179 q 1833 219 1846 206 q 1799 235 1819 232 q 1740 239 1778 239 l 1529 239 l 1524 239 l 1457 -10 l 1204 -10 l 1271 239 l 1331 464 l 1589 464 l 1818 464 q 1825 464 1821 464 q 1831 464 1829 464 l 1965 464 q 2061 500 2015 464 q 2121 587 2107 536 q 2108 674 2135 638 q 2031 710 2082 710 l 1397 710 l 1464 963 l 2113 963 q 2340 856 2263 963 q 2378 601 2417 750 q 2280 419 2351 503 q 2114 289 2208 336 q 2129 240 2122 267 q 2169 103 2160 133 q 2201 21 2179 74 z "}}}
